<svg xmlns="http://www.w3.org/2000/svg" style="display:none">
  <symbol id="hero-mage" viewBox="0 0 120 120">
    <defs><linearGradient id="mageGlow" x1="0" y1="0" x2="1" y2="1"><stop stop-color="#8ee7ff"/><stop offset="1" stop-color="#9178ff"/></linearGradient></defs>
    <circle cx="60" cy="62" r="44" fill="#15112d" stroke="url(#mageGlow)" stroke-width="4"/>
    <path d="M28 83c12-24 20-36 32-36s20 12 32 36c-14 14-50 14-64 0z" fill="#27204b"/>
    <path d="M38 49l22-32 22 32c-15-8-29-8-44 0z" fill="url(#mageGlow)" opacity=".9"/>
    <circle cx="60" cy="54" r="15" fill="#ffd98a"/>
    <path d="M43 92h34l-7-24H50z" fill="#8ee7ff" opacity=".45"/>
    <path d="M60 10l3 8 8 3-8 3-3 8-3-8-8-3 8-3z" fill="#fff"/>
  </symbol>
  <symbol id="enemy-wolf" viewBox="0 0 120 120">
    <circle cx="60" cy="60" r="47" fill="#2a1420" stroke="#ff6b6b" stroke-width="4"/>
    <path d="M25 48l14-28 13 22h16l13-22 14 28-9 37c-15 19-37 19-52 0z" fill="#4b2633"/>
    <path d="M42 61l13 6-13 4zm36 0l-13 6 13 4z" fill="#ffd98a"/>
    <path d="M49 88h22l-11 10z" fill="#ff6b6b"/>
  </symbol>
  <symbol id="enemy-moth" viewBox="0 0 120 120">
    <circle cx="60" cy="60" r="47" fill="#111d33" stroke="#8ee7ff" stroke-width="4"/>
    <path d="M59 58C27 14 6 54 43 82c10 7 16 1 16-24zM61 58c32-44 53-4 16 24-10 7-16 1-16-24z" fill="#8ee7ff" opacity=".7"/>
    <ellipse cx="60" cy="65" rx="10" ry="31" fill="#ffd98a"/>
    <circle cx="60" cy="36" r="9" fill="#f8f3ff"/>
  </symbol>
  <symbol id="enemy-oracle" viewBox="0 0 120 120">
    <circle cx="60" cy="60" r="47" fill="#171229" stroke="#9178ff" stroke-width="4"/>
    <path d="M28 80c10-35 54-35 64 0-15 18-49 18-64 0z" fill="#2b2250"/>
    <circle cx="60" cy="57" r="22" fill="#090814" stroke="#8ee7ff" stroke-width="3"/>
    <circle cx="60" cy="57" r="8" fill="#ffd98a"/>
    <circle cx="31" cy="36" r="6" fill="#8ee7ff"/><circle cx="89" cy="36" r="6" fill="#8ee7ff"/>
  </symbol>
  <symbol id="enemy-tyrant" viewBox="0 0 120 120">
    <circle cx="60" cy="60" r="47" fill="#2d1b10" stroke="#ffd98a" stroke-width="4"/>
    <path d="M60 14l7 22 22-7-12 20 20 12-23 4 4 23-18-15-18 15 4-23-23-4 20-12-12-20 22 7z" fill="#ffd98a"/>
    <circle cx="60" cy="60" r="22" fill="#ff6b6b"/>
    <path d="M48 58h24M51 72h18" stroke="#241018" stroke-width="5" stroke-linecap="round"/>
  </symbol>
</svg>
